<svg width="21" height="12" viewBox="0 0 21 12" fill="none" xmlns="http://www.w3.org/2000/svg">
<path d="M4.64926 11.7166C3.92393 11.7166 3.2946 11.6046 2.76126 11.3806C2.22793 11.1566 1.7906 10.8526 1.44926 10.4686C1.10793 10.0739 0.85193 9.6099 0.681264 9.07656C0.521264 8.54323 0.441264 7.96723 0.441264 7.34856V0.388562H1.99326V7.17256C1.99326 8.2819 2.2386 9.08723 2.72926 9.58856C3.21993 10.0899 3.85993 10.3406 4.64926 10.3406C5.04393 10.3406 5.40126 10.2819 5.72126 10.1646C6.05193 10.0366 6.3346 9.84456 6.56926 9.58856C6.80393 9.33256 6.98526 9.00723 7.11326 8.61256C7.24126 8.20723 7.30526 7.72723 7.30526 7.17256V0.388562H8.85726V7.34856C8.85726 7.96723 8.77193 8.54323 8.60126 9.07656C8.44126 9.6099 8.18526 10.0739 7.83326 10.4686C7.49193 10.8526 7.0546 11.1566 6.52126 11.3806C5.9986 11.6046 5.3746 11.7166 4.64926 11.7166ZM20.4969 0.388562C20.0916 1.5619 19.7022 2.6499 19.3289 3.65256C18.9662 4.64456 18.6089 5.58856 18.2569 6.48456C17.9049 7.38056 17.5529 8.23923 17.2009 9.06056C16.8596 9.87123 16.5076 10.6766 16.1449 11.4766H14.6889C14.3262 10.6766 13.9689 9.87123 13.6169 9.06056C13.2756 8.23923 12.9236 7.38056 12.5609 6.48456C12.2089 5.58856 11.8462 4.64456 11.4729 3.65256C11.0996 2.6499 10.7156 1.5619 10.3209 0.388562H12.0329C12.6089 2.0739 13.1742 3.69523 13.7289 5.25256C14.2836 6.8099 14.8542 8.27123 15.4409 9.63656C16.0276 8.2819 16.5982 6.8259 17.1529 5.26856C17.7076 3.70056 18.2676 2.0739 18.8329 0.388562H20.4969Z" fill="#266F9E"/>
</svg>
