<svg width="24" height="15" viewBox="0 0 24 15" fill="none" xmlns="http://www.w3.org/2000/svg">
<path d="M11.6603 5.05123L11.6864 5.06746C12.7917 5.75483 14.1509 6.16563 15.6492 6.25961C15.9932 6.28075 16.2893 6.01982 16.3109 5.67608C16.3324 5.33218 16.0712 5.03595 15.7273 5.01436C14.2883 4.92409 13.0094 4.50392 12.0303 3.79678C11.815 3.64132 11.525 3.63911 11.3074 3.79137C10.2914 4.50231 8.99627 4.92453 7.56328 5.01436M11.6603 5.05123L6.97971 5.67604C6.95817 5.33218 7.21943 5.03595 7.56328 5.01436M11.6603 5.05123L11.634 5.06718C10.5011 5.75534 9.13125 6.16617 7.64139 6.25961C7.62809 6.26044 7.6148 6.26086 7.6017 6.26086C7.27504 6.26086 7.00047 6.00657 6.97971 5.67604L11.6603 5.05123ZM7.56328 5.01436L7.56015 4.96446L7.56328 5.01436C7.56328 5.01436 7.56328 5.01436 7.56328 5.01436Z" fill="#266F9E" stroke="#F8F8FE" stroke-width="0.1"/>
<path d="M8.94995 7.72822H14.3406C14.6851 7.72822 14.9644 8.00753 14.9644 8.35205C14.9644 8.69657 14.6851 8.97588 14.3406 8.97588H8.94995C8.60543 8.97588 8.32612 8.69657 8.32612 8.35205C8.32612 8.00753 8.60543 7.72822 8.94995 7.72822Z" fill="#266F9E" stroke="#F8F8FE" stroke-width="0.1"/>
<path d="M13.5566 1.54207L13.528 1.58304C14.2357 2.07821 15.2037 2.3376 16.3246 2.3376H18.4285C21.0017 2.3376 23.0953 4.43117 23.0953 7.00439C23.0953 9.49399 21.1355 11.5346 18.6777 11.6645L18.6615 11.6654L18.6489 11.6755C17.8936 12.284 15.0579 14.3665 11.6453 14.3665C8.23262 14.3665 5.39695 12.284 4.64155 11.6755L4.62896 11.6654L4.61282 11.6645C2.15504 11.5346 0.195264 9.49399 0.195264 7.00439C0.195264 4.43117 2.28883 2.3376 4.86206 2.3376H6.96598C8.08684 2.3376 9.05484 2.07821 9.76255 1.58304C10.3172 1.195 10.9681 0.989941 11.6453 0.989941C12.3224 0.989941 12.9734 1.195 13.528 1.58304L13.5566 1.54207ZM13.5566 1.54207C14.2537 2.02979 15.2108 2.2876 16.3246 2.2876H18.4285C21.0293 2.2876 23.1453 4.40355 23.1453 7.00439C23.1453 9.52074 21.1645 11.5831 18.6803 11.7145H4.61018C2.126 11.5831 0.145264 9.52074 0.145264 7.00439C0.145264 4.40355 2.26122 2.2876 4.86206 2.2876H6.96598C8.07972 2.2876 9.03683 2.02979 9.73388 1.54207C10.2969 1.14815 10.9579 0.939941 11.6453 0.939941C12.3327 0.939941 12.9936 1.14815 13.5566 1.54207ZM4.23823 3.70304V3.64182L4.17825 3.65405C2.6195 3.97175 1.44292 5.35309 1.44292 7.00439C1.44292 8.6557 2.6195 10.037 4.17825 10.3547L4.23823 10.3669V10.3057V3.70304ZM5.48589 10.7267V10.7512L5.50519 10.7662C6.25691 11.351 8.76665 13.1188 11.6453 13.1188C14.5239 13.1188 17.0336 11.351 17.7853 10.7662L17.8046 10.7512V10.7267V3.63525V3.58525H17.7546H16.3246C14.9209 3.58525 13.7404 3.25442 12.8127 2.60533L12.7841 2.6463L12.8127 2.60533C12.4689 2.36478 12.0651 2.2376 11.6453 2.2376C11.2254 2.2376 10.8216 2.36478 10.4778 2.60533L10.5064 2.6463L10.4778 2.60533C9.55014 3.25442 8.36959 3.58525 6.96598 3.58525H5.53589H5.48589V3.63525V10.7267ZM19.0523 10.3057V10.367L19.1123 10.3547C20.671 10.037 21.8476 8.65574 21.8476 7.00439C21.8476 5.35305 20.671 3.97171 19.1123 3.65405L19.0523 3.64182V3.70304V10.3057Z" fill="#266F9E" stroke="#F8F8FE" stroke-width="0.1"/>
<path d="M10.2976 10.4235H12.9929C13.3374 10.4235 13.6167 10.7028 13.6167 11.0474C13.6167 11.3919 13.3374 11.6712 12.9929 11.6712H10.2976C9.95309 11.6712 9.67378 11.3919 9.67378 11.0474C9.67378 10.7028 9.95309 10.4235 10.2976 10.4235Z" fill="#266F9E" stroke="#F8F8FE" stroke-width="0.1"/>
</svg>
