<svg width="20" height="20" viewBox="0 0 20 20" fill="none" xmlns="http://www.w3.org/2000/svg">
<path d="M18.8531 16.7625L18.8661 16.8108C19.0606 16.7581 19.1952 16.5815 19.1952 16.3801V14.0051C19.1952 13.9426 19.1818 13.8803 19.1561 13.822L19.156 13.8216L15.5262 5.73078C15.5262 5.73078 15.5262 5.73077 15.5262 5.73077C15.4255 5.50618 15.1608 5.40525 14.9367 5.50695C14.712 5.60781 14.6123 5.87171 14.713 6.09625L14.713 6.09626L18.3035 14.1005V14.7306L13.5922 6.65474M18.8531 16.7625L18.8662 16.8108C18.8266 16.8216 18.7873 16.826 18.7494 16.826C18.5934 16.826 18.4453 16.744 18.3642 16.6048L13.2077 7.76473L11.9795 9.87092L11.9795 9.87101C11.8546 10.0841 11.581 10.1545 11.3697 10.0314L11.3696 10.0314C11.1574 9.90748 11.0852 9.63466 11.2091 9.4216L11.2091 9.42155L12.8224 6.65484C12.8224 6.65481 12.8225 6.65478 12.8225 6.65475C12.9038 6.51421 13.0578 6.44698 13.207 6.44698C13.3563 6.44698 13.5105 6.51424 13.5922 6.65474M18.8531 16.7625C19.0257 16.7158 19.1452 16.559 19.1452 16.3801V14.0051C19.1452 13.9497 19.1333 13.8943 19.1104 13.8421L18.4074 16.5796C18.4794 16.7031 18.6108 16.776 18.7494 16.776C18.7834 16.776 18.8182 16.772 18.8531 16.7625ZM13.5922 6.65474L13.5489 6.67986M13.5922 6.65474L13.5921 6.65467L13.5489 6.67986M13.5489 6.67986C13.4072 6.43602 13.0067 6.43602 12.8657 6.67986H13.5489Z" fill="#266F9E" stroke="#266F9E" stroke-width="0.1"/>
<path d="M9.5927 8.67167L9.59269 8.67169L9.81476 9.26195C9.8739 9.28882 9.9372 9.30124 9.99846 9.30124C10.1686 9.30124 10.3302 9.20413 10.4043 9.03903C10.4043 9.03901 10.4043 9.03898 10.4043 9.03896L11.7231 6.12659L11.7231 6.12656C11.8247 5.90196 11.7258 5.63799 11.501 5.53631L11.4804 5.58187L11.5011 5.53634C11.2789 5.4355 11.0124 5.53434 10.9116 5.75924C10.9115 5.75926 10.9115 5.75929 10.9115 5.75932L9.5927 8.67167Z" fill="#266F9E" stroke="#266F9E" stroke-width="0.1"/>
<path d="M13.2077 0.100879C12.9616 0.100879 12.7619 0.30061 12.7619 0.546725V2.13007C12.7619 2.37615 12.9616 2.57588 13.2077 2.57588C13.4538 2.57588 13.6536 2.37615 13.6536 2.13003V0.546725C13.6536 0.30061 13.4538 0.100879 13.2077 0.100879Z" fill="#266F9E" stroke="#266F9E" stroke-width="0.1"/>
<path d="M14.7911 15.1425H13.6368C13.4088 12.0486 10.8173 9.60088 7.66611 9.60088C4.51489 9.60088 1.92416 12.0486 1.69542 15.1425H0.541109C0.294995 15.1425 0.0952637 15.3423 0.0952637 15.5884V18.755C0.0952637 19.0011 0.294995 19.2009 0.541109 19.2009H14.7911C15.0372 19.2009 15.237 19.0011 15.237 18.755V15.5884C15.2369 15.3423 15.0372 15.1425 14.7911 15.1425ZM14.3453 18.3092H0.986918V16.0342H2.12442C2.37053 16.0342 2.57026 15.8345 2.57026 15.5884C2.57026 12.7786 4.85638 10.4925 7.66611 10.4925C10.4758 10.4925 12.7619 12.7786 12.7619 15.5884C12.7619 15.8345 12.9616 16.0342 13.2078 16.0342H14.3453V18.3092Z" fill="#266F9E" stroke="#266F9E" stroke-width="0.1"/>
<path d="M7.66611 12.7676C6.11055 12.7676 4.84526 14.033 4.84526 15.5885C4.84526 15.8346 5.045 16.0343 5.29111 16.0343H10.0411C10.2872 16.0343 10.487 15.8346 10.487 15.5885C10.4869 14.033 9.22163 12.7676 7.66611 12.7676ZM9.5435 15.1426H5.78872C5.99026 14.2929 6.75608 13.6593 7.66611 13.6593C8.57614 13.6593 9.34192 14.2929 9.5435 15.1426Z" fill="#266F9E" stroke="#266F9E" stroke-width="0.1"/>
<path d="M13.2077 1.68413C11.6522 1.68413 10.3869 2.94942 10.3869 4.50498C10.3869 6.0605 11.6522 7.32579 13.2077 7.32579C14.7633 7.32579 16.0286 6.0605 16.0286 4.50494C16.0286 2.94938 14.7633 1.68413 13.2077 1.68413ZM13.2077 6.43413C12.1436 6.43413 11.2786 5.56828 11.2786 4.50498C11.2786 3.44164 12.1436 2.57579 13.2077 2.57579C14.2718 2.57579 15.1369 3.44164 15.1369 4.50494C15.1369 5.56828 14.2718 6.43413 13.2077 6.43413Z" fill="#266F9E" stroke="#266F9E" stroke-width="0.1"/>
<path d="M13.2078 3.66338C12.7431 3.66338 12.3661 4.04127 12.3661 4.50503C12.3661 4.96884 12.7431 5.34669 13.2078 5.34669C13.6724 5.34669 14.0494 4.9688 14.0494 4.50503C14.0494 4.04127 13.6724 3.66338 13.2078 3.66338Z" fill="#266F9E" stroke="#266F9E" stroke-width="0.1"/>
<path d="M13.2078 16.7259C12.9617 16.7259 12.7619 16.9256 12.7619 17.1717V18.3092H12.0703V17.9634C12.0703 17.7173 11.8706 17.5175 11.6244 17.5175C11.3783 17.5175 11.1786 17.7173 11.1786 17.9634V18.3092H10.4869V17.9634C10.4869 17.7173 10.2872 17.5175 10.0411 17.5175C9.79498 17.5175 9.59529 17.7173 9.59529 17.9634V18.3092H8.90364V17.1717C8.90364 16.9256 8.70391 16.7259 8.45779 16.7259C8.21168 16.7259 8.01195 16.9256 8.01195 17.1717V18.3092H7.32029V17.9634C7.32029 17.7173 7.12056 17.5175 6.87445 17.5175C6.62833 17.5175 6.4286 17.7173 6.4286 17.9634V18.3092H5.73695V17.9634C5.73695 17.7173 5.53721 17.5175 5.2911 17.5175C5.04498 17.5175 4.84529 17.7173 4.84529 17.9634V18.3092H4.15364V17.1717C4.15364 16.9256 3.95391 16.7259 3.70779 16.7259C3.46168 16.7259 3.26195 16.9256 3.26195 17.1717V18.3092H2.57029V17.9634C2.57029 17.7173 2.37056 17.5175 2.12445 17.5175C1.87833 17.5175 1.67864 17.7173 1.67864 17.9634V18.755C1.67864 19.0011 1.87837 19.2009 2.12448 19.2009H13.2078C13.4539 19.2009 13.6536 19.0011 13.6536 18.755V17.1717C13.6536 16.9256 13.4539 16.7259 13.2078 16.7259Z" fill="#266F9E" stroke="#266F9E" stroke-width="0.1"/>
</svg>
