<svg width="22" height="22" viewBox="0 0 22 22" fill="none" xmlns="http://www.w3.org/2000/svg">
<g clip-path="url(#clip0)">
<path d="M14.8519 19.6901L14.8369 19.6876C14.6136 19.6502 14.4021 19.801 14.3647 20.0244C14.3609 20.0474 14.359 20.0701 14.359 20.0926C14.359 20.2894 14.501 20.4631 14.7016 20.4967L14.7166 20.4992C14.7395 20.503 14.7623 20.5049 14.7848 20.5049C14.9815 20.5049 15.1552 20.3628 15.1888 20.1623C15.1927 20.1394 15.1945 20.1166 15.1945 20.0941C15.1945 19.8974 15.0524 19.7236 14.8519 19.6901Z" fill="#266F9E"/>
<path d="M6.92598 20.0245C6.88861 19.8011 6.67718 19.6501 6.45377 19.6876L6.43875 19.6901C6.23823 19.7236 6.09619 19.8973 6.09619 20.0941C6.09619 20.1166 6.09804 20.1393 6.10189 20.1623C6.1354 20.3628 6.3091 20.5049 6.5059 20.5049C6.52837 20.5049 6.55118 20.503 6.57411 20.4992L6.58912 20.4967C6.78964 20.4631 6.93168 20.2894 6.93168 20.0926C6.93168 20.0701 6.92979 20.0474 6.92598 20.0245Z" fill="#266F9E"/>
<path d="M17.8619 14.5255C18.1073 14.5255 18.3507 14.4823 18.5911 14.3959C20.2434 13.8022 21.0892 11.3119 21.1244 11.2062C21.164 11.087 21.1469 10.9562 21.0779 10.8513C21.009 10.7464 20.8957 10.6788 20.7705 10.668C19.4976 10.5582 18.459 10.7654 17.6775 11.2846C17.7402 10.8684 17.7761 10.4685 17.7931 10.0933C17.7997 10.0933 17.8063 10.0933 17.8129 10.0933C18.382 10.0933 18.8712 9.90837 19.2709 9.54119C20.4588 8.44981 20.352 6.10687 20.3468 6.00765C20.3402 5.87837 20.2728 5.75983 20.1652 5.68785C20.0576 5.61595 19.9222 5.59905 19.8003 5.64224C18.6629 6.04526 17.9808 6.60923 17.5739 7.1677C17.5192 6.8867 17.4648 6.6607 17.4232 6.50218C17.7492 6.02709 17.8646 5.52174 17.7662 4.99596C17.4869 3.50323 15.5074 2.44605 15.4232 2.40175C15.3117 2.34302 15.1793 2.33892 15.0643 2.39052C14.9493 2.44211 14.8644 2.54367 14.8341 2.66602C14.5338 3.87684 14.6299 4.88583 15.12 5.66484C15.6054 6.43639 16.3395 6.74515 16.6649 6.84905C16.7683 7.27274 16.9251 8.04822 16.9718 9.00832C16.0725 7.95319 14.6868 7.33484 14.6694 7.32967C14.5583 7.29657 14.4385 7.31203 14.3393 7.37212C14.2403 7.43229 14.1713 7.53159 14.1494 7.64541C13.868 9.11135 14.0442 10.3074 14.673 11.2004C15.3008 12.092 16.1966 12.4041 16.5686 12.4995C16.5405 12.5933 16.0469 13.8734 15.7847 14.3282C15.4482 12.6765 13.7061 11.2287 13.6238 11.1613C13.5259 11.0808 13.3962 11.0503 13.2726 11.0784C13.149 11.1065 13.0454 11.1902 12.9918 11.305C12.341 12.7012 12.2151 13.9475 12.6177 15.0092C12.9222 15.8122 13.4646 16.3247 13.8652 16.6128C13.314 17.0822 12.6915 17.506 11.9986 17.8834C12.1218 17.605 12.204 17.2964 12.204 16.9682C12.204 15.6861 10.9497 14.7014 10.8963 14.6602C10.7485 14.5459 10.5422 14.5459 10.3945 14.6602C10.3411 14.7014 9.08679 15.686 9.08679 16.9682C9.08679 17.2963 9.16899 17.605 9.29216 17.8833C8.59932 17.5059 7.9767 17.0821 7.42549 16.6128C7.82609 16.3246 8.36853 15.8122 8.67303 15.0091C9.0756 13.9473 8.94972 12.7011 8.29892 11.305C8.24536 11.1901 8.14171 11.1064 8.01813 11.0783C7.89455 11.0502 7.7649 11.0808 7.66691 11.1612C7.58468 11.2287 5.84253 12.6764 5.50608 14.3281C5.24387 13.8733 4.75024 12.5932 4.72211 12.4994C5.09412 12.404 5.98994 12.092 6.61777 11.2004C7.24654 10.3074 7.42266 9.11127 7.1413 7.64533C7.11943 7.53151 7.05045 7.43221 6.95139 7.37204C6.85234 7.31195 6.73237 7.29649 6.62134 7.32959C6.60399 7.33475 5.21827 7.95307 4.31896 9.00824C4.36572 8.04806 4.5224 7.27262 4.62593 6.84896C4.95126 6.74503 5.6854 6.43631 6.17074 5.66476C6.6608 4.88575 6.75702 3.87676 6.4567 2.66594C6.42635 2.54363 6.34145 2.44203 6.22644 2.39043C6.11147 2.33884 5.97912 2.34298 5.86759 2.40167C5.78347 2.44597 3.80389 3.50319 3.52461 4.99587C3.42622 5.52165 3.54159 6.02705 3.86767 6.50209C3.82604 6.66062 3.77161 6.88662 3.71694 7.16761C3.31006 6.60915 2.62797 6.04522 1.49056 5.64216C1.36858 5.59889 1.23323 5.61583 1.12565 5.68777C1.01802 5.75975 0.950672 5.87829 0.943987 6.00757C0.93886 6.10678 0.832014 8.44973 2.01995 9.54111C2.41965 9.90833 2.90872 10.0933 3.47794 10.0933C3.4845 10.0933 3.4911 10.0932 3.49767 10.0932C3.51465 10.4684 3.55058 10.8683 3.61329 11.2845C2.83182 10.7653 1.79338 10.5581 0.520253 10.668C0.395114 10.6788 0.281829 10.7463 0.212841 10.8513C0.143811 10.9562 0.126708 11.087 0.166411 11.2062C0.201602 11.3119 1.04743 13.8021 2.69971 14.3959C2.9401 14.4823 3.1834 14.5254 3.42888 14.5254C3.7922 14.5254 4.16015 14.4309 4.52987 14.2423C4.64106 14.4661 5.19953 15.3835 5.36655 15.6095C4.4206 15.4743 3.19292 15.662 1.67099 16.5861C1.5641 16.6511 1.49265 16.7612 1.47699 16.8852C1.46128 17.0093 1.50303 17.1337 1.59039 17.2232C1.6796 17.3146 3.70164 19.3617 5.69927 19.3617C5.79939 19.3617 5.89959 19.3566 5.99934 19.3458C6.80608 19.2585 7.47578 18.8262 7.99184 18.0604C8.47168 18.3764 8.98852 18.6671 9.54199 18.9323C9.07601 19.0861 8.58886 19.2254 8.08076 19.3501C7.86079 19.404 7.72618 19.6262 7.7802 19.8462C7.82614 20.0334 7.99373 20.1586 8.17822 20.1586C8.21058 20.1586 8.24347 20.1548 8.27632 20.1467C9.1201 19.9397 9.91006 19.6934 10.6455 19.4084C11.3809 19.6934 12.1709 19.9397 13.0146 20.1467C13.0475 20.1548 13.0804 20.1586 13.1127 20.1586C13.2972 20.1586 13.4648 20.0333 13.5107 19.8462C13.5647 19.6262 13.4302 19.4041 13.2102 19.3501C12.7021 19.2254 12.2149 19.086 11.749 18.9323C12.3024 18.6671 12.8193 18.3764 13.2991 18.0604C13.8152 18.8262 14.4849 19.2584 15.2916 19.3458C15.3915 19.3566 15.4914 19.3617 15.5917 19.3617C17.5892 19.3617 19.6113 17.3147 19.7006 17.2232C19.7879 17.1337 19.8296 17.0093 19.814 16.8852C19.7983 16.7612 19.7268 16.6511 19.62 16.5861C18.098 15.662 16.8704 15.4743 15.9244 15.6095C16.0913 15.3835 16.6498 14.4661 16.761 14.2423C17.1307 14.431 17.4985 14.5255 17.8619 14.5255ZM19.5181 6.64544C19.4693 7.37667 19.2775 8.42208 18.7149 8.93798C18.4714 9.16131 18.1749 9.27193 17.8142 9.27279C17.7475 8.72826 17.8059 7.46974 19.5181 6.64544ZM17.7763 12.2561C18.3521 11.7711 19.1 11.4595 20.1258 11.4595C20.1315 11.4595 20.1371 11.4595 20.1428 11.4595C19.8037 12.2162 19.1516 13.3228 18.3137 13.6239C17.9347 13.7602 17.5453 13.7227 17.1284 13.5088C17.1394 13.4342 17.3894 12.5819 17.7763 12.2561ZM16.7683 6.00535C16.7652 6.00699 16.7621 6.00868 16.759 6.01036C16.5036 5.9038 16.0955 5.67477 15.8144 5.22794C15.5199 4.75975 15.4219 4.15436 15.5215 3.42333C16.0878 3.81286 16.8327 4.46324 16.9601 5.14792C17.0146 5.44102 16.9518 5.72345 16.7683 6.00535ZM3.47679 9.27279C3.11601 9.27193 2.81947 9.16135 2.57588 8.93798C2.01331 8.42212 1.82152 7.37667 1.77271 6.64544C3.48618 7.47039 3.54336 8.73003 3.47679 9.27279ZM2.97824 13.6243C2.14279 13.3249 1.48921 12.2171 1.14878 11.4595C1.15415 11.4595 1.15965 11.4595 1.16502 11.4595C2.19066 11.4595 2.97951 11.7265 3.51452 12.2561C3.77711 12.516 3.93838 12.801 4.03567 13.0473C4.05614 13.1081 4.15142 13.4342 4.16241 13.5088C3.74606 13.7225 3.3569 13.7601 2.97824 13.6243ZM4.3307 5.14792C4.45809 4.46329 5.20293 3.81286 5.76932 3.42333C5.86813 4.14906 5.77231 4.75105 5.4827 5.21785C5.20088 5.6721 4.78687 5.90392 4.52958 6.01105C4.52782 6.01007 4.52609 6.00913 4.52429 6.00818C4.33939 5.72534 4.27598 5.44196 4.3307 5.14792ZM4.42692 10.4762C4.60304 9.57142 5.69258 8.78728 6.41967 8.35711C6.52368 9.3316 6.36778 10.1239 5.95422 10.7179C5.548 11.3012 4.97542 11.5593 4.6589 11.6633C4.52355 11.4497 4.33582 10.9443 4.42692 10.4762ZM5.9123 18.5301C4.6703 18.6647 3.2512 17.6014 2.57539 17.0169C3.76882 16.3943 4.82321 16.2811 5.75816 16.5412C6.51396 16.7514 7.16668 17.5507 7.2536 17.6852C6.88601 18.195 6.44546 18.472 5.9123 18.5301ZM6.81087 16.0379C6.7932 16.0211 6.2926 15.5363 6.27062 14.8878C6.23526 13.844 7.20754 12.7403 7.77544 12.1762C8.13269 13.14 8.17838 13.9893 7.91038 14.7066C7.64144 15.4265 7.1084 15.8485 6.81087 16.0379ZM10.6461 18.3978C10.353 18.1019 9.90711 17.5551 9.90711 16.9682C9.90711 16.377 10.3523 15.8323 10.6454 15.5378C10.9386 15.8325 11.3836 16.3771 11.3836 16.9682C11.3836 17.5588 10.9391 18.1031 10.6461 18.3978ZM13.3804 14.7067C13.1124 13.9894 13.1581 13.14 13.5153 12.1762C14.0833 12.7403 15.0351 13.8435 15.0202 14.8878C15.0146 15.277 14.8709 15.6219 14.5827 15.9338C14.5655 15.9519 14.5484 15.9699 14.531 15.9878C14.5144 16.0046 14.4974 16.0213 14.4799 16.0378C14.1817 15.8481 13.6491 15.426 13.3804 14.7067ZM18.7183 17.0184C17.9479 17.6845 16.5431 18.6564 15.3798 18.5302C14.846 18.4724 14.4051 18.1954 14.0372 17.6852C14.1241 17.5507 14.8701 16.7565 15.5327 16.5411C16.4563 16.2409 17.5237 16.3946 18.7183 17.0184ZM15.3437 10.7281C14.9248 10.1331 14.7665 9.33718 14.8711 8.35703C15.5982 8.78724 16.6369 9.58278 16.8639 10.4762C16.955 10.8349 16.7667 11.4508 16.6309 11.6648C16.3176 11.5636 15.754 11.3108 15.3437 10.7281Z" fill="#266F9E"/>
</g>
<defs>
<clipPath id="clip0">
<rect width="21" height="21" fill="white" transform="translate(0.145264 0.929688)"/>
</clipPath>
</defs>
</svg>
