<svg width="19" height="20" viewBox="0 0 19 20" fill="none" xmlns="http://www.w3.org/2000/svg">
<path d="M15.9496 3.51306C14.231 1.79443 11.9454 0.847754 9.51489 0.847754C7.08439 0.847754 4.79883 1.79443 3.0802 3.51306C1.3616 5.23169 0.414893 7.51725 0.414893 9.94775C0.414893 12.3783 1.3616 14.6638 3.0802 16.3824C4.79883 18.1011 7.08439 19.0478 9.51489 19.0478C11.9454 19.0478 14.231 18.1011 15.9496 16.3824C17.6682 14.6638 18.6149 12.3783 18.6149 9.94775C18.6149 7.51725 17.6682 5.23169 15.9496 3.51306ZM9.51489 17.7931C5.18905 17.7931 1.66958 14.2736 1.66958 9.94775C1.66958 5.62192 5.18905 2.10244 9.51489 2.10244C13.8407 2.10244 17.3602 5.62192 17.3602 9.94775C17.3602 14.2736 13.8407 17.7931 9.51489 17.7931Z" fill="#266F9E" stroke="#266F9E" stroke-width="0.2"/>
<path d="M10.0797 9.32041H8.94999C8.36161 9.32041 7.8828 8.8416 7.8828 8.25326C7.8828 7.66488 8.36165 7.18607 8.94999 7.18607H11.2094C11.5558 7.18607 11.8367 6.90519 11.8367 6.55873C11.8367 6.21227 11.5558 5.93138 11.2094 5.93138H10.1422V4.8642C10.1422 4.51773 9.86131 4.23685 9.51485 4.23685C9.16839 4.23685 8.8875 4.51773 8.8875 4.8642V5.93221C7.6359 5.96546 6.62815 6.99381 6.62815 8.25326C6.62815 9.53362 7.66968 10.5751 8.95003 10.5751H10.0797C10.6681 10.5751 11.1469 11.0539 11.1469 11.6423C11.1469 12.2306 10.6681 12.7095 10.0797 12.7095H7.82035C7.47389 12.7095 7.19301 12.9904 7.19301 13.3368C7.19301 13.6833 7.47389 13.9642 7.82035 13.9642H8.8875V15.0314C8.8875 15.3778 9.16839 15.6587 9.51485 15.6587C9.86131 15.6587 10.1422 15.3778 10.1422 15.0314V13.9633C11.3938 13.9301 12.4015 12.9017 12.4015 11.6423C12.4015 10.3619 11.3601 9.32041 10.0797 9.32041Z" fill="#266F9E" stroke="#266F9E" stroke-width="0.2"/>
</svg>
