<svg width="19" height="19" viewBox="0 0 19 19" fill="none" xmlns="http://www.w3.org/2000/svg">
<g clip-path="url(#clip0)">
<path d="M16.6208 5.57214C16.248 5.7525 16.092 6.20111 16.2724 6.57373C16.7651 7.59161 17.0149 8.68878 17.0149 9.83594C17.0149 13.9714 13.6503 17.3359 9.51489 17.3359C5.37946 17.3359 2.01489 13.9714 2.01489 9.83594C2.01489 5.7005 5.37946 2.33594 9.51489 2.33594C11.2286 2.33594 12.8384 2.89551 14.1709 3.95404C14.4941 4.21204 14.9667 4.15802 15.2247 3.83374C15.4827 3.50964 15.4286 3.0376 15.1042 2.77997C13.5267 1.52625 11.5417 0.835938 9.51489 0.835938C4.55255 0.835938 0.514893 4.8736 0.514893 9.83594C0.514893 14.7983 4.55255 18.8359 9.51489 18.8359C14.4772 18.8359 18.5149 14.7983 18.5149 9.83594C18.5149 8.46082 18.2146 7.14301 17.6224 5.92059C17.4424 5.54706 16.9924 5.39142 16.6208 5.57214Z" fill="#266F9E"/>
<path d="M9.51489 3.83594C9.10089 3.83594 8.76489 4.17194 8.76489 4.58594V9.83594C8.76489 10.2499 9.10089 10.5859 9.51489 10.5859H13.2649C13.6789 10.5859 14.0149 10.2499 14.0149 9.83594C14.0149 9.42193 13.6789 9.08594 13.2649 9.08594H10.2649V4.58594C10.2649 4.17194 9.92889 3.83594 9.51489 3.83594Z" fill="#266F9E"/>
</g>
<defs>
<clipPath id="clip0">
<rect width="18" height="18" fill="white" transform="translate(0.514893 0.835938)"/>
</clipPath>
</defs>
</svg>
