<svg width="22" height="22" viewBox="0 0 22 22" fill="none" xmlns="http://www.w3.org/2000/svg">
<g clip-path="url(#clip0)">
<path d="M21.0124 6.16933C21.0069 4.72 19.8276 3.5495 18.3783 3.55495C17.3473 3.55881 16.414 4.16608 15.9929 5.10716L13.7524 4.73255L13.5333 6.02696L15.7849 6.40289C15.8725 7.37919 16.497 8.22527 17.404 8.59677L16.765 13.4169C15.4489 13.5716 14.4557 14.685 14.4518 16.0103V16.0201L6.88799 18.0146C6.48455 17.2954 5.7651 16.8089 4.94735 16.7024L3.60767 5.98038C4.245 5.72657 4.75796 5.23382 5.03724 4.60724L7.06513 4.94577L7.28097 3.65201L5.24324 3.31151C5.11937 1.87112 3.85124 0.803871 2.41085 0.927785C0.970458 1.05166 -0.0967939 2.31975 0.0271202 3.76014C0.132787 4.9887 1.08154 5.9769 2.30473 6.13259L3.64572 16.8527C2.29796 17.3857 1.63743 18.9103 2.17044 20.2581C2.70345 21.6059 4.2281 22.2664 5.57586 21.7334C6.57804 21.337 7.23603 20.3683 7.23505 19.2906V19.2808L14.7988 17.2863C15.5033 18.5488 17.0979 19.001 18.3603 18.2966C19.6227 17.592 20.075 15.9975 19.3705 14.7351C19.0792 14.213 18.6179 13.8064 18.0634 13.5829L18.7024 8.76275C20.0173 8.60653 21.0087 7.49347 21.0124 6.16933ZM2.6426 4.8572C1.91794 4.8572 1.33047 4.26974 1.33047 3.54507C1.33047 2.82041 1.91794 2.23294 2.6426 2.23294C3.36727 2.23294 3.95473 2.82041 3.95473 3.54507C3.95473 4.26974 3.36727 4.8572 2.6426 4.8572ZM4.61079 20.6027C3.88613 20.6027 3.29867 20.0153 3.29867 19.2906C3.29867 18.566 3.88613 17.9785 4.61079 17.9785C5.33546 17.9785 5.92292 18.566 5.92292 19.2906C5.92292 20.0153 5.33546 20.6027 4.61079 20.6027ZM18.3881 16.0103C18.3881 16.735 17.8007 17.3224 17.076 17.3224C16.3513 17.3224 15.7639 16.735 15.7639 16.0103C15.7639 15.2856 16.3513 14.6982 17.076 14.6982C17.8007 14.6982 18.3881 15.2856 18.3881 16.0103ZM17.076 6.16933C17.076 5.44467 17.6635 4.8572 18.3881 4.8572C19.1128 4.8572 19.7003 5.44467 19.7003 6.16933C19.7003 6.89399 19.1128 7.48146 18.3881 7.48146C17.6635 7.48146 17.076 6.89399 17.076 6.16933Z" fill="#266F9E"/>
<path d="M12.4583 4.51657L11.1641 4.3006L10.9481 5.59488L12.2424 5.81086L12.4583 4.51657Z" fill="#266F9E"/>
<path d="M9.86617 4.08446L8.57202 3.86823L8.35578 5.16238L9.64994 5.37862L9.86617 4.08446Z" fill="#266F9E"/>
</g>
<defs>
<clipPath id="clip0">
<rect width="21" height="21" fill="white" transform="translate(0.0148926 0.917969)"/>
</clipPath>
</defs>
</svg>
