<svg width="19" height="19" viewBox="0 0 19 19" fill="none" xmlns="http://www.w3.org/2000/svg">
<g clip-path="url(#clip0)">
<path d="M17.0268 11.5663C17.0268 12.6044 16.1852 13.446 15.1471 13.446H2.87523L5.35013 10.9711L4.46413 10.0851L0.919656 13.6296C0.675056 13.8743 0.675056 14.2708 0.919656 14.5156L4.46413 18.0601L5.35013 17.1741L2.87523 14.6992H15.1471C16.8764 14.697 18.2778 13.2957 18.28 11.5663V9.06006H17.0268V11.5663Z" fill="#266F9E"/>
<path d="M1.98922 6.5538C1.98922 5.51559 2.83071 4.6741 3.86892 4.6741H16.1408L13.6659 7.14901L14.5519 8.03501L18.0964 4.49054C18.341 4.24579 18.341 3.84929 18.0964 3.60453L14.5519 0.0600586L13.6659 0.946063L16.1408 3.42097H3.86892C2.13959 3.42296 0.738073 4.82447 0.736084 6.5538V9.06007H1.98922V6.5538Z" fill="#266F9E"/>
</g>
<defs>
<clipPath id="clip0">
<rect width="18" height="18" fill="white" transform="translate(0.514893 0.0600586)"/>
</clipPath>
</defs>
</svg>
