<svg width="33" height="33" viewBox="0 0 33 33" fill="none" xmlns="http://www.w3.org/2000/svg">
<g clip-path="url(#clip0)">
<mask id="path-1-inside-1" fill="white">
<path d="M19.0065 13.7847C19.9636 13.7847 20.7395 14.5604 20.7395 15.5175C20.7395 16.4745 19.9636 17.2503 19.0065 17.2503C18.0494 17.2503 17.2736 16.4745 17.2736 15.5175C17.2736 14.5604 18.0494 13.7847 19.0065 13.7847ZM16.4045 24.3736L17.7649 22.3061C15.9779 22.0255 14.4136 21.0653 13.3453 19.6995L15.3914 18.6077L14.3036 16.5694L12.2417 17.6696C11.997 16.9582 11.8637 16.1954 11.8637 15.402C11.8637 14.6267 11.9908 13.8806 12.2249 13.1831L14.3036 14.2923L15.3914 12.254L13.3137 11.1453C14.3768 9.76515 15.9432 8.79189 17.7357 8.50262V10.7811H20.0463V8.51521C21.8196 8.82152 23.3662 9.79802 24.4147 11.1739L22.4484 12.2232L23.5362 14.2615L25.4924 13.2176C25.6022 13.5504 25.6878 13.8941 25.7467 14.2467H28.0816C27.9896 13.5067 27.8097 12.7937 27.5537 12.1177L30.0323 10.7951C30.2151 10.8607 30.4119 10.8966 30.6172 10.8966C31.5743 10.8966 32.3502 10.1208 32.3502 9.16381C32.3502 8.20677 31.5743 7.43099 30.6172 7.43099C29.7978 7.43099 29.1118 7.99981 28.9312 8.76393L26.4723 10.076C25.9828 9.37798 25.4002 8.74984 24.7423 8.21012L26.2427 5.77545C27.0259 5.60887 27.6134 4.91361 27.6134 4.08081C27.6134 3.12378 26.8376 2.348 25.8805 2.348C24.9234 2.348 24.1475 3.12378 24.1475 4.08081C24.1475 4.27194 24.1789 4.45557 24.2361 4.62752L22.7884 6.97659C21.9365 6.57711 21.0144 6.30379 20.0463 6.17926V3.63929C20.4007 3.32201 20.6239 2.8612 20.6239 2.34805C20.6239 1.39102 19.8481 0.615234 18.891 0.615234C17.9339 0.615234 17.1581 1.39102 17.1581 2.34805C17.1581 2.8612 17.3813 3.32201 17.7357 3.63929V6.16984C16.8638 6.27474 16.0284 6.50029 15.2473 6.8301L13.9566 4.60857C14.0098 4.44216 14.0388 4.2649 14.0388 4.08087C14.0388 3.12384 13.2629 2.34805 12.3058 2.34805C11.3487 2.34805 10.5729 3.12384 10.5729 4.08087C10.5729 4.92123 11.1712 5.62164 11.965 5.78002L13.2472 7.98705C12.4821 8.56685 11.8091 9.26194 11.2544 10.0465L8.85083 8.76393C8.6702 7.99981 7.98413 7.43099 7.1648 7.43099C6.20769 7.43099 5.43186 8.20677 5.43186 9.16381C5.43186 10.1208 6.20769 10.8966 7.1648 10.8966C7.37009 10.8966 7.56695 10.8607 7.74972 10.7951L10.1654 12.0842C9.90261 12.77 9.71845 13.4945 9.62482 14.2467H7.12754C6.81024 13.8923 6.34939 13.6691 5.83621 13.6691C4.87911 13.6691 4.10327 14.4449 4.10327 15.402C4.10327 16.359 4.87911 17.1348 5.83621 17.1348C6.34939 17.1348 6.81024 16.9116 7.12754 16.5572H9.62482C9.72065 17.3269 9.91104 18.0677 10.1838 18.7677L7.72581 20.0792C7.53362 20.0057 7.32509 19.965 7.10703 19.965C6.14993 19.965 5.37409 20.7408 5.37409 21.6979C5.37409 22.6549 6.14993 23.4307 7.10703 23.4307C7.91383 23.4307 8.59181 22.8794 8.7848 22.133L11.2842 20.7993C11.791 21.5077 12.3947 22.1424 13.0758 22.6837L11.5445 25.132C10.7301 25.2739 10.1108 25.9836 10.1108 26.8386C10.1108 27.7956 10.8866 28.5714 11.8437 28.5714C12.8008 28.5714 13.5767 27.7956 13.5767 26.8386C13.5767 26.6695 13.552 26.5063 13.5068 26.3518L15.049 23.8862C15.4842 24.0821 15.937 24.2459 16.4045 24.3736ZM24.4364 30.1887H26.747V27.8783H24.4364V30.1887ZM24.4364 26.5433H26.747V22.391H24.4364V26.5433ZM33.3009 26.3318L33.2925 26.3183L27.7187 17.8468C27.256 17.1112 26.4623 16.6727 25.5917 16.6727C24.7211 16.6727 23.9273 17.1112 23.4647 17.8467L17.8997 26.305L17.8826 26.3318C17.4015 27.1088 17.3808 28.0908 17.8286 28.8946C18.2733 29.6928 19.1127 30.1887 20.0192 30.1887H22.1258V27.8783H20.0192C19.9449 27.8783 19.887 27.8419 19.8471 27.7702C19.8183 27.7185 19.7947 27.64 19.8423 27.5561L25.4025 19.1052L25.4196 19.0784C25.4588 19.0152 25.5167 18.9831 25.5917 18.9831C25.6667 18.9831 25.7246 19.0152 25.7638 19.0784L25.7722 19.0919L31.3411 27.556C31.3887 27.6399 31.3651 27.7185 31.3363 27.7702C31.2964 27.8419 31.2385 27.8782 31.1643 27.8782H29.0576V30.1886H31.1643C32.0708 30.1886 32.9102 29.6927 33.3548 28.8945C33.8026 28.0908 33.7819 27.1088 33.3009 26.3318Z"/>
</mask>
<path d="M19.0065 13.7847C19.9636 13.7847 20.7395 14.5604 20.7395 15.5175C20.7395 16.4745 19.9636 17.2503 19.0065 17.2503C18.0494 17.2503 17.2736 16.4745 17.2736 15.5175C17.2736 14.5604 18.0494 13.7847 19.0065 13.7847ZM16.4045 24.3736L17.7649 22.3061C15.9779 22.0255 14.4136 21.0653 13.3453 19.6995L15.3914 18.6077L14.3036 16.5694L12.2417 17.6696C11.997 16.9582 11.8637 16.1954 11.8637 15.402C11.8637 14.6267 11.9908 13.8806 12.2249 13.1831L14.3036 14.2923L15.3914 12.254L13.3137 11.1453C14.3768 9.76515 15.9432 8.79189 17.7357 8.50262V10.7811H20.0463V8.51521C21.8196 8.82152 23.3662 9.79802 24.4147 11.1739L22.4484 12.2232L23.5362 14.2615L25.4924 13.2176C25.6022 13.5504 25.6878 13.8941 25.7467 14.2467H28.0816C27.9896 13.5067 27.8097 12.7937 27.5537 12.1177L30.0323 10.7951C30.2151 10.8607 30.4119 10.8966 30.6172 10.8966C31.5743 10.8966 32.3502 10.1208 32.3502 9.16381C32.3502 8.20677 31.5743 7.43099 30.6172 7.43099C29.7978 7.43099 29.1118 7.99981 28.9312 8.76393L26.4723 10.076C25.9828 9.37798 25.4002 8.74984 24.7423 8.21012L26.2427 5.77545C27.0259 5.60887 27.6134 4.91361 27.6134 4.08081C27.6134 3.12378 26.8376 2.348 25.8805 2.348C24.9234 2.348 24.1475 3.12378 24.1475 4.08081C24.1475 4.27194 24.1789 4.45557 24.2361 4.62752L22.7884 6.97659C21.9365 6.57711 21.0144 6.30379 20.0463 6.17926V3.63929C20.4007 3.32201 20.6239 2.8612 20.6239 2.34805C20.6239 1.39102 19.8481 0.615234 18.891 0.615234C17.9339 0.615234 17.1581 1.39102 17.1581 2.34805C17.1581 2.8612 17.3813 3.32201 17.7357 3.63929V6.16984C16.8638 6.27474 16.0284 6.50029 15.2473 6.8301L13.9566 4.60857C14.0098 4.44216 14.0388 4.2649 14.0388 4.08087C14.0388 3.12384 13.2629 2.34805 12.3058 2.34805C11.3487 2.34805 10.5729 3.12384 10.5729 4.08087C10.5729 4.92123 11.1712 5.62164 11.965 5.78002L13.2472 7.98705C12.4821 8.56685 11.8091 9.26194 11.2544 10.0465L8.85083 8.76393C8.6702 7.99981 7.98413 7.43099 7.1648 7.43099C6.20769 7.43099 5.43186 8.20677 5.43186 9.16381C5.43186 10.1208 6.20769 10.8966 7.1648 10.8966C7.37009 10.8966 7.56695 10.8607 7.74972 10.7951L10.1654 12.0842C9.90261 12.77 9.71845 13.4945 9.62482 14.2467H7.12754C6.81024 13.8923 6.34939 13.6691 5.83621 13.6691C4.87911 13.6691 4.10327 14.4449 4.10327 15.402C4.10327 16.359 4.87911 17.1348 5.83621 17.1348C6.34939 17.1348 6.81024 16.9116 7.12754 16.5572H9.62482C9.72065 17.3269 9.91104 18.0677 10.1838 18.7677L7.72581 20.0792C7.53362 20.0057 7.32509 19.965 7.10703 19.965C6.14993 19.965 5.37409 20.7408 5.37409 21.6979C5.37409 22.6549 6.14993 23.4307 7.10703 23.4307C7.91383 23.4307 8.59181 22.8794 8.7848 22.133L11.2842 20.7993C11.791 21.5077 12.3947 22.1424 13.0758 22.6837L11.5445 25.132C10.7301 25.2739 10.1108 25.9836 10.1108 26.8386C10.1108 27.7956 10.8866 28.5714 11.8437 28.5714C12.8008 28.5714 13.5767 27.7956 13.5767 26.8386C13.5767 26.6695 13.552 26.5063 13.5068 26.3518L15.049 23.8862C15.4842 24.0821 15.937 24.2459 16.4045 24.3736ZM24.4364 30.1887H26.747V27.8783H24.4364V30.1887ZM24.4364 26.5433H26.747V22.391H24.4364V26.5433ZM33.3009 26.3318L33.2925 26.3183L27.7187 17.8468C27.256 17.1112 26.4623 16.6727 25.5917 16.6727C24.7211 16.6727 23.9273 17.1112 23.4647 17.8467L17.8997 26.305L17.8826 26.3318C17.4015 27.1088 17.3808 28.0908 17.8286 28.8946C18.2733 29.6928 19.1127 30.1887 20.0192 30.1887H22.1258V27.8783H20.0192C19.9449 27.8783 19.887 27.8419 19.8471 27.7702C19.8183 27.7185 19.7947 27.64 19.8423 27.5561L25.4025 19.1052L25.4196 19.0784C25.4588 19.0152 25.5167 18.9831 25.5917 18.9831C25.6667 18.9831 25.7246 19.0152 25.7638 19.0784L25.7722 19.0919L31.3411 27.556C31.3887 27.6399 31.3651 27.7185 31.3363 27.7702C31.2964 27.8419 31.2385 27.8782 31.1643 27.8782H29.0576V30.1886H31.1643C32.0708 30.1886 32.9102 29.6927 33.3548 28.8945C33.8026 28.0908 33.7819 27.1088 33.3009 26.3318Z" fill="#266F9E" stroke="#F8F8FE" mask="url(#path-1-inside-1)"/>
</g>
<defs>
<clipPath id="clip0">
<rect width="33" height="32" fill="white" transform="translate(0 0.615234)"/>
</clipPath>
</defs>
</svg>
