<svg width="14" height="22" viewBox="0 0 14 22" fill="none" xmlns="http://www.w3.org/2000/svg">
<path d="M3.56906 15.2384C3.90413 15.9709 4.19599 16.6089 4.39507 17.0797L4.39711 17.1022L4.39711 17.1023L4.39712 17.1023L4.39716 17.1028L4.39736 17.1051L4.39816 17.1149L4.40109 17.1552C4.40353 17.1914 4.40681 17.246 4.41008 17.3193C4.41587 17.4489 4.42165 17.6369 4.42277 17.8839H4.3967V17.9839V18.9648V19.0765L4.5077 19.0642L9.70229 18.4892L9.79396 18.4791L9.79124 18.3869C9.78645 18.2244 9.783 18.0983 9.78126 18.0325L9.78126 18.0324C9.76863 17.573 9.76625 17.3241 9.76872 17.1932H9.80679L9.7927 17.0933C9.98814 16.5928 10.2931 15.8772 10.6452 15.0508L10.684 14.9598C11.0579 14.0821 11.4809 13.0876 11.8786 12.1018C12.2762 11.1162 12.6491 10.1376 12.9228 9.29173C13.1952 8.44984 13.3735 7.72693 13.3735 7.2583V7.25827C13.3727 3.75259 10.5206 0.9 7.01463 0.9C3.50869 0.9 0.656104 3.75258 0.656104 7.2583C0.656104 7.78974 0.840326 8.5431 1.12345 9.3977C1.40761 10.2554 1.79523 11.226 2.20964 12.1963C2.62415 13.1668 3.06617 14.1386 3.45942 14.9987C3.49643 15.0797 3.53299 15.1596 3.56906 15.2384ZM7.01463 1.98811C9.92098 1.98811 12.2855 4.35221 12.2855 7.2583C12.2855 7.62111 12.1334 8.23131 11.8793 8.99946C11.6267 9.76312 11.2779 10.6696 10.8939 11.6184C10.5364 12.5017 10.1473 13.4238 9.77788 14.2994C9.36744 15.2722 8.98118 16.1877 8.6892 16.929L5.52719 16.9648C5.24977 16.3135 4.89326 15.5266 4.51076 14.6822L4.46425 14.5795C4.0517 13.6688 3.6114 12.6949 3.20758 11.7522C2.80366 10.8092 2.43698 9.89896 2.17143 9.11541C1.90465 8.32825 1.74421 7.68081 1.74421 7.2583C1.74421 4.3522 4.1083 1.98811 7.01463 1.98811Z" fill="#266F9E" stroke="#266F9E" stroke-width="0.2"/>
<path d="M4.49675 19.9315C4.47551 19.9462 4.45772 20.1864 4.54703 20.4965L9.67141 19.9289C9.67311 19.892 9.67527 19.8599 9.67965 19.8361C9.69874 19.7151 9.70483 19.448 9.70394 19.1535L4.49675 19.7307V19.9315Z" fill="#266F9E"/>
<path d="M7.14433 22C8.84183 22.0082 9.38821 21.3187 9.57032 20.706L4.94836 21.2185C5.32411 21.6348 5.98391 21.9943 7.14433 22Z" fill="#266F9E"/>
</svg>
